<?xml version="1.0" encoding="utf-8"?>
<!-- Generator: Adobe Illustrator 22.0.1, SVG Export Plug-In . SVG Version: 6.00 Build 0)  -->
<svg version="1.1" id="Layer_1" xmlns="http://www.w3.org/2000/svg" xmlns:xlink="http://www.w3.org/1999/xlink" x="0px" y="0px"
	 viewBox="0 0 144 145.5" style="enable-background:new 0 0 144 145.5;" xml:space="preserve">
<style type="text/css">
	.st0{display:none;}
	.st1{display:inline;}
	.st2{fill:#7ED321;}
	.st3{fill:#75B216;}
	.st4{display:inline;fill:#75B216;}
	.st5{display:inline;fill:#7ED321;}
	.st6{fill:#44D2B8;}
	.st7{fill:#209982;}
</style>
<g class="st0">
	<g class="st1">
		<path class="st2" d="M53-94.8c-3.9,0.3-8-0.5-11.3-2.1c-4.5-2.2-5.6-6.7-7-11.1c-0.6-2-1-4-2-5.9c-0.9-1.6-3-3-3-5
			c0-1.2,0-2.4,0-3.6c0.2-0.1,0.4-0.2,0.5-0.3c5.1-1.3,10.5-2.5,15.8-2.8c4.6-0.3,9.2,0.4,13.7,1.2c2.7,0.5,5.4,1.3,8.2,1.7
			c2.8,0.4,5.7,0.5,8.5,0.3c1.6-0.1,3.2-0.3,4.7-0.6c2.2-0.4,4.4-0.9,6.7-1.3c2.2-0.4,4.4-0.9,6.6-1.1c1.2-0.1,2.5-0.2,3.7-0.3
			c1.9,0,3.8,0.3,5.7,0.5c1.4,0.2,2.8,0.4,4.2,0.7c1.4,0.3,2.9,0.7,4.3,1c0.8,0.2,1.6,0.4,2.4,0.6c0.7,0.2,1.3,0.5,1.7,1.1
			c0,1.4,0,2.9,0,4.3c-0.3,0.3-0.5,0.8-0.8,1c-1,0.7-1.6,1.5-1.9,2.6c-0.7,2.4-1.4,4.9-2,7.3c-0.8,3.1-2.2,5.8-4.7,7.9
			c-2.6,2.2-5.7,3.2-9,3.6c-4.3,0.4-8.4-0.3-12.1-2.4c-3.2-1.8-5.3-4.7-6.8-8c-1.1-2.6-1.7-8.5-5.2-9c-3.2-0.5-3.8,3-4.5,5.3
			c-1,3.7-3.1,7-5.7,9.8C61.1-96.5,57.1-95.1,53-94.8z M95.1-122.8C95.1-122.8,95.1-122.9,95.1-122.8c-4-0.1-7.9,0.5-11.6,2
			c-3.7,1.5-5,3.9-4.2,7.8c0.7,3.3,2,6.3,3.9,9.1c2,3.1,4.9,5,8.5,5.8c3.1,0.7,6.1,0.6,9.2-0.1c3.1-0.7,5.5-2.4,6.8-5.3
			c1.8-4.2,2.9-8.6,2.6-13.3c-0.1-1.6-0.9-2.9-2.3-3.7c-1-0.6-2.1-1.1-3.3-1.3C101.5-122.2,98.3-122.4,95.1-122.8z M51.5-122.9
			c-1.5,0.1-3.4,0.2-5.2,0.5c-2,0.3-4.1,0.7-6,1.3c-2.5,0.8-3.7,2.6-3.8,5.2c-0.1,6.6,1.6,14.9,8.5,17.4c5.3,2,12.2,1.3,16.4-2.8
			c3.3-3.3,5.4-7.9,6.2-12.5c0.5-3-0.6-5.2-3.3-6.6C60.4-122.3,56.2-122.9,51.5-122.9z"/>
		<path class="st3" d="M92.2-171.3c-11.5-4.6-25.1-3.1-28-2.8c5.2-0.7,18.7-0.2,26.7,4.1c11.5,6.2,21.4,8.4,23.7,8.8
			c1.1-0.5,10.6-4.7,12.9-10.7c0,0,0,0-0.1,0.1C114.8-159.6,104.9-166.2,92.2-171.3z"/>
		<path class="st3" d="M81.5-150.7c-11.8-7.9-22.2-1.6-22.2-1.6c8-1.7,15.6,4.9,15.6,4.9c18.4,15.9,34.6,13.3,34.6,13.3l-4.1-2.1
			c10,0.1,18-3.7,23.1-8.8c0.7-0.6,1.3-1.3,1.9-2C115-134.2,92.8-143.1,81.5-150.7z"/>
		<path class="st2" d="M109.5-124.2c-6.9-1.6-2.9,1.7-2.9,1.7c0.5,1.5,2.1,0.9,1.8,0.7c2.9-0.4,1.5,1.1,1.6,1.2
			c1.6,2.1,6.4,2.1,6.4,2.1l-1.8,16C110-83.9,91.8-69,71.3-69C51.9-69,35.4-81.8,30-99.4c-1.2-4-1.9-8.3-1.9-12.7
			c0-2.9,0.3-5.8,0.8-8.5c0.9-4.4,2.4-8.6,4.6-12.4c0,0,9.4-15.9,18.9-12.1c0,0,0,0,0,0c1.2,0.5,2.4,1.6,3.6,2.8
			c10.6,11.3,13.7,20.3,13,25.4c0,0,0.3-0.8,0.5-2.2c0.1-3-0.5-7.9-3.3-15.5c0,0-3.4-9.4-7-12.1c0,0,10.9,4.9,12.2,10.6
			c0,0-1.8-8.1-3.3-9.7c0,0,6,7.2,15.5,11.1c6.3,2,15,3.1,25.8,0.7c0,0-16.1,2.6-34.6-13.3c0,0-7.6-6.6-15.6-4.9
			c0,0,10.4-6.3,22.2,1.6c11.3,7.6,33.5,16.5,48.9,3.7c3.1-3.6,5.1-7.5,6-11.1c3.4-12.7,3.9-20.8,3.9-20.8s-9.9,18.1-25.2,17.9
			l-0.1,0c0,0-0.1,0-0.2,0c-0.1,0-0.3,0-0.4,0c0,0,0,0,0.1,0c-2.3-0.4-12.2-2.6-23.7-8.8c-8-4.3-21.5-4.8-26.7-4.1
			c2.9-0.4,16.5-1.8,28,2.8c12.7,5,22.6,11.7,35.2-0.5c-1.2,0.8-12.7,8.3-28.5,0.6c-10.8-5.3-20.9-6-26.8-6.3
			c-17.5,0-33.8,7.3-45.5,18.6c-1.7,1.7-3.3,3.7-4.9,5.7l-0.1-0.3c-9.3,11.2-14.8,25.6-14.8,41.3c0,1.3,0,2.7,0.1,4l1.1,4.8
			c0.3,1.4,0.6,2.6,1.1,4.1c6.3,29,32.1,50.6,62.9,50.6c25.8,0,48.5-15.1,58.9-37c3.6-8.1,5.6-17.1,5.6-26.5
			c0-3.5-0.3-15.8-0.9-19.1C135.8-131.3,126.8-120.3,109.5-124.2z M63.9-174c-0.1,0-0.2,0-0.3,0C63.6-173.9,63.7-174,63.9-174z
			 M135.9-102.1l-0.2,0l0,0L135.9-102.1C135.9-102.1,135.9-102.1,135.9-102.1z"/>
		<path class="st3" d="M68.2-145.9c1.4,1.6,3.3,9.7,3.3,9.7c-1.3-5.7-12.2-10.6-12.2-10.6c3.5,2.8,7,12.1,7,12.1
			c2.8,7.6,3.4,12.5,3.3,15.5c0.7-3.7,1.7-11.4-1.6-19.1c0,0,3.4,7.6,4.5,10.6c1,3.1,1.4-10.6-1-13.7c0,0,4.2,4,12.3,6.6
			C74.2-138.7,68.2-145.9,68.2-145.9z"/>
	</g>
	<path class="st4" d="M-402-58.4c0,2.3-0.8,4.3-2.5,5.8c-1.6,1.6-3.6,2.5-5.8,2.5h-0.2c-2.2,0-4.2-0.8-5.8-2.5
		c-1.6-1.6-2.5-3.5-2.5-5.8v-37.7c0-9.1,3.2-16.8,9.7-23.3c6.4-6.4,14.2-9.7,23.3-9.7c10.9,0,19.1,3.6,24.6,10.8
		c5.5-7.2,13.7-10.8,24.6-10.8c9.1,0,16.9,3.2,23.3,9.7c6.4,6.5,9.7,14.3,9.7,23.3v37.7c0,2.3-0.8,4.2-2.4,5.8
		c-1.6,1.6-3.6,2.5-5.9,2.5h-0.1c-2.3,0-4.3-0.8-5.8-2.5c-1.6-1.6-2.5-3.5-2.5-5.8v-37.7c0-4.5-1.6-8.3-4.7-11.5
		c-3.2-3.2-7-4.7-11.5-4.7c-4.5,0-8.3,1.6-11.5,4.7c-3.2,3.2-4.7,7-4.7,11.5v37.7c0,2.3-0.8,4.3-2.5,5.8c-1.6,1.6-3.5,2.5-5.8,2.5
		h-0.1c-2.3,0-4.3-0.8-5.9-2.5c-1.6-1.6-2.5-3.5-2.5-5.8v-37.7c0-4.5-1.6-8.3-4.7-11.5c-3.2-3.2-7-4.7-11.5-4.7
		c-4.5,0-8.3,1.6-11.5,4.7c-3.2,3.2-4.7,7-4.7,11.5V-58.4z"/>
	<path class="st4" d="M-222.5-117.5c7.7,7.7,11.6,17,11.6,27.9v31.2c0,2.3-0.8,4.3-2.5,5.8c-1.6,1.6-3.6,2.5-5.8,2.5h-0.2
		c-2.2,0-4.2-0.8-5.8-2.5c-1.6-1.6-2.5-3.5-2.5-5.8c-5.2,5.5-12.8,8.3-22.7,8.3c-10.9,0-20.2-3.9-27.9-11.6
		c-7.7-7.7-11.6-17-11.6-27.9c0-10.9,3.9-20.2,11.6-27.9c7.7-7.7,17-11.6,27.9-11.6C-239.6-129.1-230.3-125.3-222.5-117.5z
		 M-266.6-105.7c-4.4,4.4-6.6,9.8-6.6,16c0,6.3,2.2,11.7,6.6,16.1c4.4,4.4,9.8,6.6,16.1,6.6c6.3,0,11.7-2.2,16-6.6
		c4.4-4.4,6.7-9.8,6.7-16.1c0-6.3-2.2-11.6-6.7-16c-4.4-4.4-9.8-6.7-16-6.7C-256.7-112.3-262.1-110.1-266.6-105.7z"/>
	<path class="st4" d="M-159.8-38.7c5.7,0,10.9-2.2,15.5-6.7c4.8-4.6,7.2-9.9,7.2-16c-5.2,7.5-12.8,11.3-22.7,11.3
		c-10.9,0-20.2-3.9-27.9-11.6c-7.7-7.7-11.6-17-11.6-27.9c0-10.9,3.9-20.2,11.6-27.9c7.7-7.7,17-11.6,27.9-11.6
		c10.8,0,20.1,3.8,27.8,11.5c7.7,7.6,11.6,16.9,11.7,27.8v28.3c0,10.7-4.1,20-12.4,28c-8,7.7-17,11.5-27.1,11.5
		c-15.4,0-27-6-34.6-18c-0.9-1.4-1.4-2.9-1.4-4.4c0-0.9,0.2-1.8,0.5-2.7c0.8-2.6,2.5-4.3,5.1-5.2l0.2-0.1c1.1-0.4,2.2-0.6,3.3-0.6
		c2.6,0,4.7,1.3,6.4,3.8C-175.8-42.2-168.9-38.7-159.8-38.7z M-137.1-90c-0.1-6.2-2.4-11.4-6.8-15.8c-4.4-4.3-9.7-6.5-15.9-6.5
		c-6.3,0-11.7,2.2-16.1,6.7c-4.4,4.4-6.6,9.8-6.6,16c0,6.3,2.2,11.7,6.6,16.1c4.4,4.4,9.8,6.6,16.1,6.6s11.7-2.2,16-6.6
		c4.4-4.4,6.7-9.8,6.7-16.1V-90z"/>
	<path class="st4" d="M-89.8-58.4c0,2.3-0.8,4.3-2.5,5.8c-1.6,1.6-3.6,2.5-5.8,2.5h-0.2c-2.2,0-4.2-0.8-5.8-2.5
		c-1.6-1.6-2.5-3.5-2.5-5.8v-37.5c0-9.1,3.2-17,9.7-23.5c6.5-6.5,14.3-9.7,23.5-9.7c9.1,0,16.9,3.2,23.4,9.7
		c6.5,6.5,9.7,14.3,9.7,23.5v37.5c0,2.3-0.8,4.3-2.5,5.8c-1.6,1.6-3.5,2.5-5.8,2.5h-0.1c-2.3,0-4.3-0.8-5.9-2.5
		c-1.6-1.6-2.5-3.5-2.5-5.8v-37.5c0-4.5-1.6-8.4-4.7-11.6c-3.2-3.2-7.1-4.8-11.6-4.8c-4.6,0-8.5,1.6-11.7,4.8
		c-3.2,3.2-4.7,7.1-4.7,11.6V-58.4z"/>
	<path class="st4" d="M-15.5-138c-2.7,0-4.9-0.9-6.8-2.8c-1.9-1.9-2.8-4.1-2.8-6.8c0-2.6,0.9-4.8,2.8-6.7c1.9-1.9,4.1-2.8,6.8-2.8
		c2.6,0,4.8,0.9,6.7,2.8c1.9,1.8,2.9,4.1,2.9,6.7c0,2.7-1,5-2.9,6.8C-10.7-139-12.9-138-15.5-138z M-15.5-129.1
		c2.3,0,4.3,0.8,5.8,2.5c1.6,1.6,2.5,3.6,2.5,5.9v62.3c0,2.3-0.8,4.3-2.5,5.8c-1.6,1.6-3.5,2.5-5.8,2.5h-0.1c-2.3,0-4.3-0.8-5.9-2.5
		c-1.6-1.6-2.5-3.5-2.5-5.8v-62.3c0-2.3,0.8-4.3,2.5-5.9c1.6-1.6,3.6-2.5,5.9-2.5H-15.5z"/>
	<path class="st5" d="M220-106.1c0.5,1.1,0.8,2.3,0.8,3.5c0,1-0.2,1.9-0.5,2.9c-0.8,2.1-2.2,3.7-4.4,4.7
		c-6.4,2.9-14.8,6.7-25.2,11.4c-12.9,5.9-20.5,9.3-22.8,10.4c3.5,4.4,8.9,6.6,16.3,6.6c4.9,0,9.3-1.4,13.3-4.3
		c3.9-2.8,6.6-6.5,8.2-11c1.3-3.7,4-5.6,8-5.6c2.8,0,5.1,1.2,6.8,3.6c1.1,1.5,1.6,3,1.6,4.6c0,1-0.2,1.9-0.5,2.9
		c-2.7,7.8-7.4,14.1-14.2,18.9c-6.9,5-14.5,7.5-23,7.5c-10.9,0-20.2-3.9-27.9-11.6c-7.7-7.7-11.6-17-11.6-27.9
		c0-10.9,3.9-20.2,11.6-27.9c7.7-7.7,17-11.6,27.9-11.6c7.9,0,15,2.2,21.5,6.4C212.1-118.5,216.9-112.9,220-106.1z M184.1-112.2
		c-6.3,0-11.7,2.2-16.1,6.7c-4.4,4.4-6.6,9.8-6.6,16.1v0.5l38.3-17.2C196.4-110.2,191.2-112.2,184.1-112.2z"/>
	<path class="st5" d="M307.6-106.1c0.5,1.1,0.8,2.3,0.8,3.5c0,1-0.2,1.9-0.5,2.9c-0.8,2.1-2.2,3.7-4.4,4.7
		c-6.4,2.9-14.8,6.7-25.2,11.4c-12.9,5.9-20.5,9.3-22.8,10.4c3.5,4.4,8.9,6.6,16.3,6.6c4.9,0,9.3-1.4,13.3-4.3
		c3.9-2.8,6.6-6.5,8.2-11c1.3-3.7,4-5.6,8-5.6c2.8,0,5.1,1.2,6.8,3.6c1.1,1.5,1.6,3,1.6,4.6c0,1-0.2,1.9-0.5,2.9
		c-2.7,7.8-7.4,14.1-14.2,18.9c-6.9,5-14.5,7.5-23,7.5c-10.9,0-20.2-3.9-27.9-11.6c-7.7-7.7-11.6-17-11.6-27.9
		c0-10.9,3.9-20.2,11.6-27.9c7.7-7.7,17-11.6,27.9-11.6c7.9,0,15,2.2,21.5,6.4C299.7-118.5,304.5-112.9,307.6-106.1z M271.7-112.2
		c-6.3,0-11.7,2.2-16.1,6.7c-4.4,4.4-6.6,9.8-6.6,16.1v0.5l38.3-17.2C283.9-110.2,278.7-112.2,271.7-112.2z"/>
	<path class="st5" d="M330.3-157.2c2.2,0,4.2,0.8,5.8,2.4c1.6,1.6,2.5,3.6,2.5,5.9v47.5h2.6c5.9,0,10.9-1.9,15.3-5.8
		c4.3-3.9,6.7-8.7,7.3-14.4c0.3-2.1,1.2-3.9,2.7-5.3c1.6-1.5,3.4-2.2,5.6-2.2h0.2c2.4,0,4.5,0.9,6.1,2.7c1.5,1.6,2.2,3.5,2.2,5.6
		c0,0.3,0,0.6-0.1,0.9c-1.1,11.5-5.5,20.1-13.2,25.8c4,2.5,7.7,6.7,11.1,12.6c3.5,6.1,5.3,12.6,5.3,19.7v3.5c0,2.3-0.8,4.3-2.5,5.8
		c-1.6,1.6-3.6,2.5-5.8,2.5h-0.2c-2.2,0-4.2-0.8-5.8-2.5c-1.6-1.6-2.5-3.5-2.5-5.8v-3.5c0-6.2-2.3-11.5-6.7-16
		c-4.4-4.4-9.8-6.6-16-6.6h-5.6v26.1c0,2.3-0.8,4.3-2.5,5.8c-1.6,1.6-3.6,2.5-5.8,2.5h-0.2c-2.2,0-4.2-0.8-5.8-2.5
		c-1.6-1.6-2.5-3.5-2.5-5.8v-90.5c0-2.3,0.8-4.3,2.5-5.9c1.6-1.6,3.6-2.4,5.8-2.4H330.3z"/>
	<path class="st5" d="M416.7-112.3c-2,0-3.7,0.7-5.1,2.1c-1.4,1.4-2.1,3.1-2.1,5.1c0,2.7,1.3,4.8,4,6.2c0.9,0.5,4.7,1.6,11.5,3.4
		c5.4,1.6,9.5,3.6,12.1,6.1c3.8,3.6,5.7,8.8,5.7,15.4c0,6.6-2.3,12.2-7,16.9c-4.7,4.7-10.4,7-16.9,7H401c-2.2,0-4.2-0.8-5.8-2.5
		c-1.6-1.6-2.5-3.5-2.5-5.8v-0.1c0-2.3,0.8-4.3,2.5-5.9c1.6-1.6,3.6-2.5,5.8-2.5h18.6c2,0,3.7-0.7,5.1-2.1c1.4-1.4,2.1-3.1,2.1-5.1
		c0-2.5-1.3-4.4-3.9-5.7c-0.7-0.3-4.5-1.5-11.5-3.4c-5.4-1.6-9.5-3.7-12.1-6.3c-3.8-3.7-5.7-8.9-5.7-15.7c0-6.6,2.3-12.2,7-16.9
		c4.7-4.7,10.4-7.1,16.9-7.1H430c2.3,0,4.3,0.8,5.9,2.5c1.6,1.6,2.5,3.6,2.5,5.9v0.1c0,2.3-0.8,4.3-2.5,5.8
		c-1.6,1.6-3.6,2.5-5.9,2.5H416.7z"/>
</g>
<path class="st6" d="M53,91.2c-3.9,0.3-8-0.5-11.3-2.1c-4.5-2.2-5.6-6.7-7-11.1c-0.6-2-1-4-2-5.9c-0.9-1.6-3-3-3-5
	c0-1.2,0-2.4,0-3.6c0.2-0.1,0.4-0.2,0.5-0.3c5.1-1.3,10.5-2.5,15.8-2.8c4.6-0.3,9.2,0.4,13.7,1.2c2.7,0.5,5.4,1.3,8.2,1.7
	c2.8,0.4,5.7,0.5,8.5,0.3c1.6-0.1,3.2-0.3,4.7-0.6c2.2-0.4,4.4-0.9,6.7-1.3c2.2-0.4,4.4-0.9,6.6-1.1c1.2-0.1,2.5-0.2,3.7-0.3
	c1.9,0,3.8,0.3,5.7,0.5c1.4,0.2,2.8,0.4,4.2,0.7c1.4,0.3,2.9,0.7,4.3,1c0.8,0.2,1.6,0.4,2.4,0.6c0.7,0.2,1.3,0.5,1.7,1.1
	c0,1.4,0,2.9,0,4.3c-0.3,0.3-0.5,0.8-0.8,1c-1,0.7-1.6,1.5-1.9,2.6c-0.7,2.4-1.4,4.9-2,7.3c-0.8,3.1-2.2,5.8-4.7,7.9
	c-2.6,2.2-5.7,3.2-9,3.6c-4.3,0.4-8.4-0.3-12.1-2.4c-3.2-1.8-5.3-4.7-6.8-8c-1.1-2.6-1.7-8.5-5.2-9c-3.2-0.5-3.8,3-4.5,5.3
	c-1,3.7-3.1,7-5.7,9.8C61.1,89.5,57.1,90.9,53,91.2z M95.1,63.2C95.1,63.2,95.1,63.1,95.1,63.2c-4-0.1-7.9,0.5-11.6,2
	c-3.7,1.5-5,3.9-4.2,7.8c0.7,3.3,2,6.3,3.9,9.1c2,3.1,4.9,5,8.5,5.8c3.1,0.7,6.1,0.6,9.2-0.1c3.1-0.7,5.5-2.4,6.8-5.3
	c1.8-4.2,2.9-8.6,2.6-13.3c-0.1-1.6-0.9-2.9-2.3-3.7c-1-0.6-2.1-1.1-3.3-1.3C101.5,63.8,98.3,63.6,95.1,63.2z M51.5,63.1
	c-1.5,0.1-3.4,0.2-5.2,0.5c-2,0.3-4.1,0.7-6,1.3c-2.5,0.8-3.7,2.6-3.8,5.2c-0.1,6.6,1.6,14.9,8.5,17.4c5.3,2,12.2,1.3,16.4-2.8
	c3.3-3.3,5.4-7.9,6.2-12.5c0.5-3-0.6-5.2-3.3-6.6C60.4,63.7,56.2,63.1,51.5,63.1z"/>
<path class="st7" d="M92.2,14.7c-11.5-4.6-25.1-3.1-28-2.8c5.2-0.7,18.7-0.2,26.7,4.1c11.5,6.2,21.4,8.4,23.7,8.8
	c1.1-0.5,10.6-4.7,12.9-10.7c0,0,0,0-0.1,0.1C114.8,26.4,104.9,19.8,92.2,14.7z"/>
<path class="st7" d="M81.5,35.3c-11.8-7.9-22.2-1.6-22.2-1.6c8-1.7,15.6,4.9,15.6,4.9c18.4,15.9,34.6,13.3,34.6,13.3l-4.1-2.1
	c10,0.1,18-3.7,23.1-8.8c0.7-0.6,1.3-1.3,1.9-2C115,51.8,92.8,42.9,81.5,35.3z"/>
<path class="st6" d="M109.5,61.8c-6.9-1.6-2.9,1.7-2.9,1.7c0.5,1.5,2.1,0.9,1.8,0.7c2.9-0.4,1.5,1.1,1.6,1.2
	c1.6,2.1,6.4,2.1,6.4,2.1l-1.8,16C110,102.1,91.8,117,71.3,117c-19.4,0-35.9-12.8-41.3-30.4c-1.2-4-1.9-8.3-1.9-12.7
	c0-2.9,0.3-5.8,0.8-8.5c0.9-4.4,2.4-8.6,4.6-12.4c0,0,9.4-15.9,18.9-12.1c0,0,0,0,0,0c1.2,0.5,2.4,1.6,3.6,2.8
	C66.6,54.9,69.7,63.9,69,69c0,0,0.3-0.8,0.5-2.2c0.1-3-0.5-7.9-3.3-15.5c0,0-3.4-9.4-7-12.1c0,0,10.9,4.9,12.2,10.6
	c0,0-1.8-8.1-3.3-9.7c0,0,6,7.2,15.5,11.1c6.3,2,15,3.1,25.8,0.7c0,0-16.1,2.6-34.6-13.3c0,0-7.6-6.6-15.6-4.9
	c0,0,10.4-6.3,22.2,1.6c11.3,7.6,33.5,16.5,48.9,3.7c3.1-3.6,5.1-7.5,6-11.1c3.4-12.7,3.9-20.8,3.9-20.8s-9.9,18.1-25.2,17.9l-0.1,0
	c0,0-0.1,0-0.2,0c-0.1,0-0.3,0-0.4,0c0,0,0,0,0.1,0c-2.3-0.4-12.2-2.6-23.7-8.8c-8-4.3-21.5-4.8-26.7-4.1c2.9-0.4,16.5-1.8,28,2.8
	c12.7,5,22.6,11.7,35.2-0.5c-1.2,0.8-12.7,8.3-28.5,0.6C88.1,9.6,78,8.9,72.1,8.6c-17.5,0-33.8,7.3-45.5,18.6
	c-1.7,1.7-3.3,3.7-4.9,5.7l-0.1-0.3C12.5,43.7,6.9,58.1,6.9,73.8c0,1.3,0,2.7,0.1,4l1.1,4.8c0.3,1.4,0.6,2.6,1.1,4.1
	c6.3,29,32.1,50.6,62.9,50.6c25.8,0,48.5-15.1,58.9-37c3.6-8.1,5.6-17.1,5.6-26.5c0-3.5-0.3-15.8-0.9-19.1
	C135.8,54.7,126.8,65.7,109.5,61.8z M63.9,12c-0.1,0-0.2,0-0.3,0C63.6,12.1,63.7,12,63.9,12z M135.9,83.9l-0.2,0l0,0L135.9,83.9
	C135.9,83.9,135.9,83.9,135.9,83.9z"/>
<path class="st7" d="M68.2,40.1c1.4,1.6,3.3,9.7,3.3,9.7c-1.3-5.7-12.2-10.6-12.2-10.6c3.5,2.8,7,12.1,7,12.1
	c2.8,7.6,3.4,12.5,3.3,15.5c0.7-3.7,1.7-11.4-1.6-19.1c0,0,3.4,7.6,4.5,10.6c1,3.1,1.4-10.6-1-13.7c0,0,4.2,4,12.3,6.6
	C74.2,47.3,68.2,40.1,68.2,40.1z"/>
</svg>
